<?xml version="1.0" encoding="UTF-8"?>
<svg version="1.1" xmlns="http://www.w3.org/2000/svg" width="500" height="400">
<path d="M0 0 C165 0 330 0 500 0 C500 132 500 264 500 400 C335 400 170 400 0 400 C0 268 0 136 0 0 Z " fill="#FE0100" transform="translate(0,0)"/>
<path d="M0 0 C4.29303534 3.67974458 8.32389518 7.198194 12.29272461 11.16333008 C12.77167175 11.6405249 13.2506189 12.11771973 13.74407959 12.609375 C15.29932977 14.16028435 16.85096543 15.71474965 18.40234375 17.26953125 C19.49078536 18.35729825 20.57937529 19.44491685 21.66810608 20.53239441 C23.93474235 22.79756485 26.19958084 25.06451321 28.46313477 27.33276367 C31.37072187 30.24608849 34.28283087 33.15484571 37.19626522 36.06232166 C39.43788416 38.30033962 41.67713156 40.54071812 43.91565132 42.78183556 C44.9894723 43.85632498 46.06404036 44.9300683 47.13935661 46.00306129 C48.63300887 47.49419025 50.12344596 48.98845823 51.61303711 50.48364258 C52.46240341 51.33380447 53.31176971 52.18396637 54.18687439 53.05989075 C56 55 56 55 56 56 C47.42 56 38.84 56 30 56 C30 87.35 30 118.7 30 151 C20.1 151 10.2 151 0 151 C0 101.17 0 51.34 0 0 Z " fill="#FEFCFC" transform="translate(215,164)"/>
<path d="M0 0 C22.77 0 45.54 0 69 0 C69 8.91 69 17.82 69 27 C56.46 27 43.92 27 31 27 C31 32.94 31 38.88 31 45 C24.78398979 41.89199489 20.13607711 36.97422833 15.16259766 32.19238281 C13.89617461 30.9890061 12.61393352 29.80204236 11.31591797 28.6328125 C9.42494164 26.92663942 7.59396787 25.17130509 5.765625 23.3984375 C5.18758118 22.89670013 4.60953735 22.39496277 4.01397705 21.87802124 C-2.59617013 15.2021435 0 10.61579612 0 0 Z " fill="#FDFAFA" transform="translate(215,113)"/>
<path d="M0 0 C0.33 0 0.66 0 1 0 C1 49.83 1 99.66 1 151 C10.9 151 20.8 151 31 151 C31 119.65 31 88.3 31 56 C43.375 55.505 43.375 55.505 56 55 C55.01 53.68 54.02 52.36 53 51 C54.65 51.33 56.3 51.66 58 52 C58 53.65 58 55.3 58 57 C49.75 57 41.5 57 33 57 C33.01571045 59.83706543 33.0314209 62.67413086 33.04760742 65.59716797 C33.09723494 74.95294785 33.13042157 84.30873343 33.15543652 93.66460991 C33.17111703 99.33913997 33.19239877 105.0135356 33.22631836 110.68798828 C33.25882679 116.16038465 33.27683502 121.63265142 33.28463173 127.10513687 C33.29019058 129.19681973 33.3010451 131.2884952 33.31719017 133.38012314 C33.33885126 136.30158778 33.34197169 139.22251143 33.34057617 142.14404297 C33.351362 143.01582184 33.36214783 143.88760071 33.3732605 144.78579712 C33.36076355 147.19088745 33.36076355 147.19088745 33 151 C29.32070555 153.45286296 27.52622093 153.23228878 23.14453125 153.1953125 C22.48289474 153.1924826 21.82125824 153.18965271 21.13957214 153.18673706 C19.03036263 153.17555918 16.92158075 153.15045981 14.8125 153.125 C13.38086552 153.11496707 11.94922436 153.10584176 10.51757812 153.09765625 C7.01158023 153.07562795 3.50583187 153.04111485 0 153 C-1.36343173 150.27313653 -1.12593981 148.12543787 -1.12698364 145.07164001 C-1.13121338 143.1764991 -1.13121338 143.1764991 -1.13552856 141.24307251 C-1.13358409 139.8351439 -1.13153591 138.42721543 -1.12939453 137.01928711 C-1.13074892 135.54280046 -1.13252906 134.06631416 -1.13470459 132.58982849 C-1.13927409 128.57347056 -1.13749144 124.55713823 -1.1343255 120.54077983 C-1.1317999 116.34518408 -1.13413996 112.14959058 -1.13571167 107.95399475 C-1.13753257 100.90837204 -1.13512891 93.8627598 -1.13037109 86.81713867 C-1.12492652 78.66009366 -1.12669287 70.50307363 -1.1321975 62.34602922 C-1.13672836 55.35324767 -1.13737937 48.36047365 -1.13475883 41.3676911 C-1.13319618 37.18645255 -1.13300201 33.00522576 -1.13629532 28.82398796 C-1.13917372 24.89489249 -1.13719893 20.9658294 -1.13140106 17.03673744 C-1.13007338 15.59069243 -1.13046771 14.14464472 -1.13266373 12.69860077 C-1.13537484 10.73286025 -1.13138076 8.76711381 -1.12698364 6.80137634 C-1.12660662 5.69874419 -1.12622959 4.59611204 -1.12584114 3.4600668 C-1 1 -1 1 0 0 Z " fill="#D1312C" transform="translate(214,164)"/>
<path d="M0 0 C1.98 1.65 3.96 3.3 6 5 C3 5 3 5 1 4 C1 51.85 1 99.7 1 149 C10.24 149 19.48 149 29 149 C29 117.98 29 86.96 29 55 C36.26 54.67 43.52 54.34 51 54 C51.33 53.01 51.66 52.02 52 51 C53.32 52.65 54.64 54.3 56 56 C47.42 56 38.84 56 30 56 C30 87.35 30 118.7 30 151 C20.1 151 10.2 151 0 151 C0 101.17 0 51.34 0 0 Z " fill="#FFCEC6" transform="translate(215,164)"/>
<path d="M0 0 C2.475 0.495 2.475 0.495 5 1 C5 2.65 5 4.3 5 6 C-3.25 6 -11.5 6 -20 6 C-20 37.02 -20 68.04 -20 100 C-20.99 100 -21.98 100 -23 100 C-22.67 68.65 -22.34 37.3 -22 5 C-9.625 4.505 -9.625 4.505 3 4 C2.01 2.68 1.02 1.36 0 0 Z " fill="#DC4140" transform="translate(267,215)"/>
<path d="M0 0 C3.45457866 0.40169519 4.49290349 1.71149673 6.6875 4.3125 C6.3575 5.3025 6.0275 6.2925 5.6875 7.3125 C4.90375 6.4875 4.12 5.6625 3.3125 4.8125 C1.05028736 2.08261494 1.05028736 2.08261494 -1.3125 2.3125 C-1.3125 52.1425 -1.3125 101.9725 -1.3125 153.3125 C-1.9725 153.3125 -2.6325 153.3125 -3.3125 153.3125 C-3.33582748 133.51143439 -3.35347843 113.71037156 -3.36431217 93.90929508 C-3.36947545 84.71597396 -3.37651875 75.52266136 -3.38793945 66.3293457 C-3.39788532 58.31942964 -3.40435319 50.30951975 -3.40658849 42.29959768 C-3.40789577 38.05572747 -3.41098266 33.8118749 -3.41823006 29.56801033 C-3.42498874 25.5782093 -3.42711727 21.5884333 -3.42560768 17.59862709 C-3.42588408 16.13000605 -3.4278901 14.66138421 -3.43170547 13.1927681 C-3.43664028 11.19627224 -3.43489813 9.19976313 -3.43275452 7.20326233 C-3.43367631 6.08328385 -3.4345981 4.96330538 -3.43554783 3.80938816 C-3.27504946 0.55255323 -3.20353229 0.43290977 0 0 Z " fill="#F20606" transform="translate(215.3125,162.6875)"/>
<path d="M0 0 C2.475 2.475 2.475 2.475 5 5 C-3.58 5 -12.16 5 -21 5 C-21 36.02 -21 67.04 -21 99 C-30.57 99 -40.14 99 -50 99 C-50 98.67 -50 98.34 -50 98 C-40.76 98 -31.52 98 -22 98 C-22 66.98 -22 35.96 -22 4 C-14.74 3.67 -7.48 3.34 0 3 C0 2.01 0 1.02 0 0 Z " fill="#FEE6E3" transform="translate(266,215)"/>
<path d="M0 0 C22.11 0 44.22 0 67 0 C67 0.33 67 0.66 67 1 C45.22 1 23.44 1 1 1 C1.33 5.29 1.66 9.58 2 14 C2.99 14.66 3.98 15.32 5 16 C5 16.99 5 17.98 5 19 C5.66 19 6.32 19 7 19 C6.67 19.99 6.34 20.98 6 22 C3 20 3 20 0 16 C0 10.72 0 5.44 0 0 Z " fill="#FFF5EB" transform="translate(216,114)"/>
<path d="M0 0 C13.2 0 26.4 0 40 0 C40 0.33 40 0.66 40 1 C27.46 1 14.92 1 2 1 C2 6.94 2 12.88 2 19 C-2.0084034 16.9957983 -3.41409657 15.50944037 -6 12 C-4.02 12.66 -2.04 13.32 0 14 C0 9.38 0 4.76 0 0 Z " fill="#F6A19F" transform="translate(244,139)"/>
<path d="M0 0 C6.41069287 5.27101414 12.18590512 11.09128152 18 17 C15 18 15 18 12.4375 17.4375 C10 16 10 16 9.125 13.0625 C8.75375 12.051875 8.3825 11.04125 8 10 C6.824375 9.525625 5.64875 9.05125 4.4375 8.5625 C3.303125 8.046875 2.16875 7.53125 1 7 C0.0625 3.3125 0.0625 3.3125 0 0 Z " fill="#DC140F" transform="translate(218,132)"/>
<path d="M0 0 C2.475 0.495 2.475 0.495 5 1 C5 1.66 5 2.32 5 3 C5.66 3 6.32 3 7 3 C9.125 4.8125 9.125 4.8125 11 7 C11 7.99 11 8.98 11 10 C11.99 10 12.98 10 14 10 C14.33 11.32 14.66 12.64 15 14 C16.32 13.67 17.64 13.34 19 13 C19 14.98 19 16.96 19 19 C14.27100612 15.13082319 9.88730678 10.99697964 5.5625 6.6875 C5.01819336 6.14770508 4.47388672 5.60791016 3.91308594 5.05175781 C0 1.12372693 0 1.12372693 0 0 Z " fill="#E0181F" transform="translate(234,182)"/>
<path d="M0 0 C3.45457866 0.40169519 4.49290349 1.71149673 6.6875 4.3125 C6.3575 5.3025 6.0275 6.2925 5.6875 7.3125 C4.90375 6.4875 4.12 5.6625 3.3125 4.8125 C1.05028736 2.08261494 1.05028736 2.08261494 -1.3125 2.3125 C-1.6425 13.5325 -1.9725 24.7525 -2.3125 36.3125 C-2.6425 36.3125 -2.9725 36.3125 -3.3125 36.3125 C-3.33715098 31.34627651 -3.35533649 26.38008834 -3.36743164 21.41381836 C-3.3724719 19.72305684 -3.37930405 18.03229971 -3.38793945 16.34155273 C-3.40001857 13.91649293 -3.40573123 11.49149056 -3.41015625 9.06640625 C-3.41531754 8.30598526 -3.42047882 7.54556427 -3.42579651 6.76210022 C-3.42599238 4.9451743 -3.37447277 3.12836873 -3.3125 1.3125 C-2.3125 0.3125 -2.3125 0.3125 0 0 Z " fill="#F10507" transform="translate(215.3125,162.6875)"/>
<path d="M0 0 C2.3125 -0.3125 2.3125 -0.3125 5 0 C6.5 2.25 6.5 2.25 8 5 C10.57183314 7.27537692 10.57183314 7.27537692 13 9 C12.67 9.99 12.34 10.98 12 12 C7.47384007 8.32167983 3.60575001 4.58913637 0 0 Z " fill="#E2151E" transform="translate(222,170)"/>
<path d="M0 0 C1.65 1.65 3.3 3.3 5 5 C-1.27 5 -7.54 5 -14 5 C-14 4.67 -14 4.34 -14 4 C-9.38 3.67 -4.76 3.34 0 3 C0 2.01 0 1.02 0 0 Z " fill="#FEDBD7" transform="translate(266,215)"/>
<path d="M0 0 C1.1055189 0.93590504 2.20935453 1.87379858 3.3125 2.8125 C3.92738281 3.33457031 4.54226562 3.85664063 5.17578125 4.39453125 C6.84469411 5.86331751 8.42796259 7.42796259 10 9 C5.545 8.01 5.545 8.01 1 7 C0.67 4.69 0.34 2.38 0 0 Z " fill="#DF1510" transform="translate(236,150)"/>
<path d="M0 0 C3.28247841 0.87532757 5.50854152 1.50854152 7.9375 3.9375 C8.288125 4.618125 8.63875 5.29875 9 6 C8.67 6.99 8.34 7.98 8 9 C6.66368764 7.6905332 5.33102075 6.37734515 4 5.0625 C3.2575 4.33160156 2.515 3.60070312 1.75 2.84765625 C0 1 0 1 0 0 Z " fill="#FECDCC" transform="translate(223,136)"/>
<path d="M0 0 C2.31 0.66 4.62 1.32 7 2 C7.33 3.98 7.66 5.96 8 8 C6.85073734 7.04578192 5.70569459 6.08647955 4.5625 5.125 C3.92441406 4.59132812 3.28632813 4.05765625 2.62890625 3.5078125 C1 2 1 2 0 0 Z " fill="#E31A25" transform="translate(253,201)"/>
<path d="M0 0 C0.99 0.33 1.98 0.66 3 1 C2.67 1.99 2.34 2.98 2 4 C1.85596652 5.33363703 1.75409577 6.67218046 1.68359375 8.01171875 C1.64169922 8.76904297 1.59980469 9.52636719 1.55664062 10.30664062 C1.51732422 11.09232422 1.47800781 11.87800781 1.4375 12.6875 C1.39431641 13.48478516 1.35113281 14.28207031 1.30664062 15.10351562 C1.20072632 17.06881447 1.09987449 19.03438496 1 21 C0.67 21 0.34 21 0 21 C0 14.07 0 7.14 0 0 Z " fill="#FFF6F0" transform="translate(216,168)"/>
<path d="M0 0 C2.31 1.98 4.62 3.96 7 6 C3.86650268 7.04449911 3.01031744 6.93423645 0 6 C0 4.02 0 2.04 0 0 Z " fill="#FEE7D9" transform="translate(259,208)"/>
<path d="M0 0 C3.68754757 0.49831724 5.60490662 1.10067643 8 4 C7.67 4.99 7.34 5.98 7 7 C5.83040013 6.02433888 4.66438823 5.044375 3.5 4.0625 C2.8503125 3.51722656 2.200625 2.97195312 1.53125 2.41015625 C1.0259375 1.94480469 0.520625 1.47945312 0 1 C0 0.67 0 0.34 0 0 Z " fill="#E01A23" transform="translate(214,163)"/>
<path d="M0 0 C2.97 0 5.94 0 9 0 C6.3144406 2.6855594 3.62378672 3.06049974 0 4 C0 2.68 0 1.36 0 0 Z " fill="#F00809" transform="translate(247,221)"/>
<path d="M0 0 C2.475 0.495 2.475 0.495 5 1 C5 1.99 5 2.98 5 4 C5.66 4 6.32 4 7 4 C6.67 4.99 6.34 5.98 6 7 C4.02 4.69 2.04 2.38 0 0 Z " fill="#FECDCB" transform="translate(216,129)"/>
<path d="M0 0 C1.14926266 0.95421808 2.29430541 1.91352045 3.4375 2.875 C4.07558594 3.40867188 4.71367187 3.94234375 5.37109375 4.4921875 C7 6 7 6 8 8 C7.01 8 6.02 8 5 8 C0 2.65116279 0 2.65116279 0 0 Z " fill="#FED6CD" transform="translate(243,192)"/>
<path d="M0 0 C2.97 0.495 2.97 0.495 6 1 C6 2.65 6 4.3 6 6 C3.97945196 4.35830472 1.97956942 2.69088222 0 1 C0 0.67 0 0.34 0 0 Z " fill="#FED3D1" transform="translate(232,145)"/>
</svg>
